HIERARCHY
ROOT Hips
{
	OFFSET 15.585500 22.159004 44.358299
	CHANNELS 6 Xposition Yposition Zposition Zrotation Xrotation Yrotation
	JOINT Chest
	{
		OFFSET -0.128500 0.160400 6.566002
		CHANNELS 6 Xposition Yposition Zposition Zrotation Xrotation Yrotation
		JOINT Chest2
		{
			OFFSET 0.000000 0.000000 3.554802
			CHANNELS 6 Xposition Yposition Zposition Zrotation Xrotation Yrotation
			JOINT Neck
			{
				OFFSET 0.000000 0.000000 8.267998
				CHANNELS 6 Xposition Yposition Zposition Zrotation Xrotation Yrotation
				JOINT Head
				{
					OFFSET 0.000000 0.000002 2.173897
					CHANNELS 6 Xposition Yposition Zposition Zrotation Xrotation Yrotation
					End Site
					{
						OFFSET 0.000000 0.000000 7.718697
					}
				}
			}
			JOINT LeftCollar
			{
				OFFSET 2.057500 0.117599 5.946301
				CHANNELS 6 Xposition Yposition Zposition Zrotation Xrotation Yrotation
				JOINT LeftShoulder
				{
					OFFSET 4.957699 0.000000 0.000000
					CHANNELS 6 Xposition Yposition Zposition Zrotation Xrotation Yrotation
					JOINT LeftElbow
					{
						OFFSET 0.000000 0.000000 -8.465500
						CHANNELS 6 Xposition Yposition Zposition Zrotation Xrotation Yrotation
						JOINT LeftWrist
						{
							OFFSET 0.000000 -0.000002 -14.594898
							CHANNELS 6 Xposition Yposition Zposition Zrotation Xrotation Yrotation
							End Site
							{
								OFFSET 0.000000 0.000000 -2.173901
							}
						}
					}
				}
			}
			JOINT RightCollar
			{
				OFFSET -3.048500 -0.728800 6.604099
				CHANNELS 6 Xposition Yposition Zposition Zrotation Xrotation Yrotation
				JOINT RightShoulder
				{
					OFFSET -3.710299 0.000000 0.000000
					CHANNELS 6 Xposition Yposition Zposition Zrotation Xrotation Yrotation
					JOINT RightElbow
					{
						OFFSET 0.000000 0.000000 -10.450901
						CHANNELS 6 Xposition Yposition Zposition Zrotation Xrotation Yrotation
						JOINT RightWrist
						{
							OFFSET 0.000000 0.000000 -12.539200
							CHANNELS 6 Xposition Yposition Zposition Zrotation Xrotation Yrotation
							End Site
							{
								OFFSET 0.000000 -0.000002 -2.173901
							}
						}
					}
				}
			}
		}
	}
	JOINT LeftHip
	{
		OFFSET 2.442599 -0.601400 -2.767502
		CHANNELS 6 Xposition Yposition Zposition Zrotation Xrotation Yrotation
		JOINT LeftKnee
		{
			OFFSET 0.000000 -0.000002 -17.033703
			CHANNELS 6 Xposition Yposition Zposition Zrotation Xrotation Yrotation
			JOINT LeftAnkle
			{
				OFFSET 0.000000 -0.000002 -19.318800
				CHANNELS 6 Xposition Yposition Zposition Zrotation Xrotation Yrotation
				End Site
				{
					OFFSET 0.000000 -8.281900 0.000000
				}
			}
		}
	}
	JOINT RightHip
	{
		OFFSET -3.126200 -0.601400 -2.283501
		CHANNELS 6 Xposition Yposition Zposition Zrotation Xrotation Yrotation
		JOINT RightKnee
		{
			OFFSET 0.000000 -0.000002 -16.919401
			CHANNELS 6 Xposition Yposition Zposition Zrotation Xrotation Yrotation
			JOINT RightAnkle
			{
				OFFSET 0.000000 -0.000002 -18.035900
				CHANNELS 6 Xposition Yposition Zposition Zrotation Xrotation Yrotation
				End Site
				{
					OFFSET 0.000000 -9.230099 0.000000
				}
			}
		}
	}
}
MOTION
Frames: 4
Frame Time: 0.041667
18.258902 38.438904 10.112900 15.157337 7.493430 -35.946370 -0.128501 0.160401 6.566000 -19.850678 9.877001 17.151816 0.000000 -0.000003 3.554808 -4.806216 -10.538967 -2.342107 -0.000000 -0.000003 8.267998 50.967428 11.484720 -17.861874 -0.000003 0.000004 2.173893 2.093388 7.181739 7.819036 2.057502 0.117598 5.946304 -21.779665 -2.149543 14.970113 4.957693 -0.000001 0.000000 5.304088 -0.252461 -71.784455 -0.000002 0.000002 -8.465502 -122.536872 -169.987945 -173.609830 0.000000 0.000000 -14.594902 135.019671 -2.791458 121.627269 -3.048502 -0.728803 6.604103 17.661988 -5.097707 -5.732197 -3.710295 0.000001 -0.000003 22.645530 -12.820612 112.344543 0.000009 0.000005 -10.450910 -170.595900 -61.530579 -147.924494 -0.000003 0.000005 -12.539192 -5.734097 -16.131247 -37.678114 2.442593 -0.601398 -2.767500 154.352945 24.916209 86.809867 0.000001 -0.000001 -17.033699 -213.944215 -24.097725 58.398623 -0.000004 0.000004 -19.318804 88.199312 42.972883 119.965839 -3.126201 -0.601393 -2.283497 -150.200996 0.159052 -112.764504 -0.000000 -0.000002 -16.919397 143.253464 -13.314755 -143.759759 -0.000001 -0.000002 -18.035900 -11.893248 48.091492 -124.234065
18.268198 38.451904 10.109501 15.219801 7.449150 -35.858626 -0.128498 0.160398 6.566000 -19.888036 9.822642 17.123581 -0.000000 0.000002 3.554806 -4.839602 -10.526799 -2.350521 -0.000000 0.000003 8.267994 50.972824 11.433112 -17.996061 0.000002 0.000005 2.173899 2.068126 7.160710 7.822223 2.057507 0.117603 5.946306 -21.814741 -2.088182 14.859654 4.957699 0.000002 0.000004 5.154655 -0.006199 -72.010056 -0.000002 -0.000002 -8.465504 -123.055844 -170.340055 -173.878680 0.000001 0.000001 -14.594897 135.210083 -3.003179 120.836838 -3.048500 -0.728799 6.604100 17.710889 -5.059689 -5.764231 -3.710291 0.000000 0.000002 22.367751 -12.850602 112.368756 0.000005 0.000000 -10.450903 -170.399983 -61.734685 -147.811277 -0.000003 0.000003 -12.539191 -5.473457 -16.140625 -37.709208 2.442595 -0.601404 -2.767496 154.246654 24.865391 86.901446 -0.000003 -0.000003 -17.033703 -213.735662 -23.911929 58.456249 -0.000002 0.000003 -19.318802 87.924042 42.964820 119.853933 -3.126198 -0.601400 -2.283500 -150.279284 0.169681 -112.725012 -0.000001 -0.000004 -16.919399 143.253123 -13.270445 -143.767354 -0.000003 -0.000002 -18.035894 -11.839253 48.079460 -124.256564
18.278198 38.466099 10.105896 15.291610 7.405197 -35.765589 -0.128502 0.160395 6.566007 -19.927990 9.760183 17.082373 -0.000002 -0.000003 3.554811 -4.872678 -10.516465 -2.358617 -0.000001 0.000002 8.267999 50.971998 11.389258 -18.125560 0.000001 0.000001 2.173897 2.043880 7.140667 7.824129 2.057504 0.117606 5.946303 -21.859887 -2.017756 14.770451 4.957701 0.000001 0.000006 5.000458 0.239800 -72.252931 -0.000002 -0.000003 -8.465501 -123.590729 -170.698421 -174.151013 -0.000002 0.000001 -14.594900 135.803053 -3.154303 121.347572 -3.048504 -0.728797 6.604100 17.752544 -5.014915 -5.805155 -3.710291 -0.000005 0.000001 22.099752 -12.877663 112.404355 0.000008 0.000008 -10.450905 -170.212016 -61.953613 -147.757414 0.000004 0.000002 -12.539193 -5.217099 -16.138209 -37.685828 2.442593 -0.601402 -2.767497 154.129393 24.824232 87.003599 -0.000002 -0.000004 -17.033707 -213.542682 -23.739629 58.507175 -0.000004 -0.000002 -19.318798 87.635726 42.959199 119.711810 -3.126201 -0.601403 -2.283494 -150.362257 0.186418 -112.683798 0.000000 -0.000005 -16.919399 143.256524 -13.221941 -143.771575 0.000002 -0.000000 -18.035896 -11.779280 48.066377 -124.282054
18.288797 38.481606 10.102196 15.374476 7.362497 -35.666476 -0.128497 0.160395 6.565996 -19.970379 9.687920 17.025186 -0.000001 -0.000001 3.554807 -4.905341 -10.507776 -2.366355 -0.000000 0.000002 8.267996 50.964887 11.354843 -18.248981 0.000003 0.000006 2.173894 2.021196 7.121627 7.823496 2.057505 0.117599 5.946307 -21.916019 -1.936815 14.705431 4.957693 0.000001 0.000005 4.844329 0.481054 -72.514944 -0.000001 -0.000002 -8.465503 -124.143237 -171.060845 -174.424972 0.000001 0.000004 -14.594898 136.419519 -3.306983 121.851244 -3.048502 -0.728800 6.604100 17.786818 -4.961717 -5.856365 -3.710288 0.000006 -0.000000 21.841874 -12.900706 112.453273 0.000004 0.000011 -10.450902 -170.013544 -62.184153 -147.648964 -0.000006 0.000005 -12.539186 -4.987238 -16.115970 -37.708429 2.442597 -0.601401 -2.767505 153.999647 24.795882 87.119172 0.000000 -0.000000 -17.033705 -213.369809 -23.585260 58.550984 -0.000001 -0.000002 -19.318802 87.337526 42.956450 119.537941 -3.126197 -0.601402 -2.283505 -150.450366 0.211550 -112.640379 0.000001 -0.000006 -16.919403 143.263996 -13.169420 -143.772094 -0.000003 -0.000003 -18.035894 -11.713448 48.052232 -124.310344
